<svg width="10" height="10" viewBox="0 0 10 10" fill="none" xmlns="http://www.w3.org/2000/svg">
<path fill-rule="evenodd" clip-rule="evenodd" d="M5 0C5.46024 0 5.83333 0.373096 5.83333 0.833333V4.16667H9.16667C9.6269 4.16667 10 4.53976 10 5C10 5.46024 9.6269 5.83333 9.16667 5.83333H5.83333V9.16667C5.83333 9.6269 5.46024 10 5 10C4.53976 10 4.16667 9.6269 4.16667 9.16667V5.83333H0.833333C0.373096 5.83333 0 5.46024 0 5C0 4.53976 0.373096 4.16667 0.833333 4.16667H4.16667V0.833333C4.16667 0.373096 4.53976 0 5 0Z" fill="#1F2327"/>
</svg>
